HIERARCHY
ROOT Hips
{
  OFFSET 0.000000 0.000000 0.000000
  CHANNELS 6 Xposition Yposition Zposition Xrotation Yrotation Zrotation
  JOINT Spine
  {
    OFFSET 1.388230 22.849755 -8.157144
    CHANNELS 3 Xrotation Yrotation Zrotation
    JOINT Chest
    {
      OFFSET 1.388230 22.849755 -8.157144
      CHANNELS 3 Xrotation Yrotation Zrotation
      JOINT Neck
      {
        OFFSET 0.386562 8.498444 -3.690407
        CHANNELS 3 Xrotation Yrotation Zrotation
        JOINT Head
        {
          OFFSET 0.662911 7.396516 -7.447500
          CHANNELS 3 Xrotation Yrotation Zrotation
          End Site
          {
            OFFSET 0.198873 2.218955 -2.234250
          }
        }
      }
      JOINT LeftShoulder
      {
        OFFSET 17.248308 -1.208605 -0.261267
        CHANNELS 3 Xrotation Yrotation Zrotation
        JOINT LeftArm
        {
          OFFSET 7.635523 -21.435821 1.774202
          CHANNELS 3 Xrotation Yrotation Zrotation
          JOINT LeftForeArm
          {
            OFFSET 7.643843 -21.327462 -9.147581
            CHANNELS 3 Xrotation Yrotation Zrotation
            JOINT LeftHand
            {
              OFFSET 0.473402 -5.275506 -2.178749
              CHANNELS 3 Xrotation Yrotation Zrotation
              End Site
              {
                OFFSET 0.142021 -1.582652 -0.653625
              }
            }
          }
        }
      }
      JOINT RightShoulder
      {
        OFFSET -17.248308 1.208605 0.261267
        CHANNELS 3 Xrotation Yrotation Zrotation
        JOINT RightArm
        {
          OFFSET -12.133127 -21.363330 5.693170
          CHANNELS 3 Xrotation Yrotation Zrotation
          JOINT RightForeArm
          {
            OFFSET -7.740244 -22.047532 -5.230031
            CHANNELS 3 Xrotation Yrotation Zrotation
            JOINT RightHand
            {
              OFFSET -0.480044 -5.557554 -1.525311
              CHANNELS 3 Xrotation Yrotation Zrotation
              End Site
              {
                OFFSET -0.144013 -1.667266 -0.457593
              }
            }
          }
        }
      }
    }
  }
  JOINT LeftUpLeg
  {
    OFFSET 11.699587 -0.675443 -0.599665
    CHANNELS 3 Xrotation Yrotation Zrotation
    JOINT LeftLeg
    {
      OFFSET -6.527727 -38.483662 1.737457
      CHANNELS 3 Xrotation Yrotation Zrotation
      JOINT LeftFoot
      {
        OFFSET 3.065902 -35.809878 12.679608
        CHANNELS 3 Xrotation Yrotation Zrotation
        End Site
        {
          OFFSET 0.919771 -10.742963 3.803882
        }
      }
    }
  }
  JOINT RightUpLeg
  {
    OFFSET -11.699587 0.675443 0.599665
    CHANNELS 3 Xrotation Yrotation Zrotation
    JOINT RightLeg
    {
      OFFSET -1.173808 -37.981520 -1.210152
      CHANNELS 3 Xrotation Yrotation Zrotation
      JOINT RightFoot
      {
        OFFSET -7.846448 -39.021816 7.691272
        CHANNELS 3 Xrotation Yrotation Zrotation
        End Site
        {
          OFFSET -2.353934 -11.706545 2.307382
        }
      }
    }
  }
}
MOTION
Frames: 14
Frame Time: 0.083333
0.000000 60.000000 0.000000 -0.761052 0.042716 -0.010551 -0.761052 0.042716 -0.010551 0.153164 0.017050 0.056179 0.099297 -0.012558 -0.003803 5.000000 0.000000 0.000000 -0.027464 0.034519 0.533513 0.681685 -0.102457 0.344506 -97.315431 13.171353 34.010686 0.000000 0.000000 0.000000 2.507782 -1.334604 0.356902 3.202876 -0.291517 0.207146 -95.771871 -10.494472 -24.143646 0.000000 0.000000 0.000000 -1.001668 0.212188 0.625120 -1.094247 0.414973 1.341369 0.000000 0.000000 0.000000 -7.778959 0.222937 -0.985764 1.262424 -0.039396 1.215890 0.000000 0.000000 0.000000
-0.257243 60.000000 -1.638203 -0.775103 0.044211 -0.008912 -0.775103 0.044211 -0.008912 0.152257 0.018262 0.058871 0.098879 -0.012284 -0.003566 5.000000 0.000000 0.000000 -0.138342 -0.008417 0.474633 0.660185 -0.088974 0.308823 -97.583394 13.174358 33.865168 0.000000 0.000000 0.000000 2.144296 -1.137399 0.323476 2.762762 -0.250145 0.173815 -95.759684 -10.534093 -24.204686 0.000000 0.000000 0.000000 -1.009085 0.214745 0.645192 -1.107409 0.416203 1.347403 0.000000 0.000000 0.000000 -7.799563 0.223963 -0.975198 1.235645 -0.034056 1.213923 0.000000 0.000000 0.000000
-0.710694 60.000000 -4.164375 -0.775621 0.044270 -0.008842 -0.775621 0.044270 -0.008842 0.152249 0.018305 0.058969 0.098889 -0.012274 -0.003555 5.000000 0.000000 0.000000 -0.664287 -0.125368 1.238925 1.776031 -0.222051 0.787708 -95.428349 12.827682 34.465806 0.000000 0.000000 0.000000 5.053109 -2.673488 0.795579 6.485110 -0.577857 0.376815 -94.952400 -10.117910 -23.877167 0.000000 0.000000 0.000000 -1.009227 0.214815 0.645950 -1.107680 0.416237 1.347557 0.000000 0.000000 0.000000 -7.800009 0.223991 -0.974831 1.234867 -0.033891 1.213909 0.000000 0.000000 0.000000
-1.080862 60.000000 -5.480810 -2.161961 0.142330 0.024566 -2.161961 0.142330 0.024566 0.236978 0.077188 0.203606 0.153400 -0.013684 -0.000218 5.000000 0.000000 0.000000 -1.352121 -0.321845 1.687081 2.253127 -0.268097 0.961621 -95.529541 12.675783 34.139796 0.000000 0.000000 0.000000 5.143857 -2.734845 0.741796 6.281295 -0.512472 0.209509 -94.371510 -10.078508 -24.018020 0.000000 0.000000 0.000000 -2.543388 0.556555 1.808923 -2.930996 1.004258 3.277636 0.000000 0.000000 0.000000 -10.857615 0.343634 0.194370 -4.272308 1.067919 0.851286 0.000000 0.000000 0.000000
-1.402397 60.000000 -5.917965 -3.055742 0.253554 0.170264 -3.055742 0.253554 0.170264 -0.028467 0.175105 0.399481 -0.010214 0.025294 0.024231 5.000000 0.000000 0.000000 -0.913195 -0.119048 2.272446 2.068388 -0.320672 1.054762 -95.741365 12.676806 34.017450 0.000000 0.000000 0.000000 5.366424 -2.975434 0.164326 5.633533 -0.349858 -0.170476 -93.992454 -10.217780 -24.361791 0.000000 0.000000 0.000000 -2.784563 0.672742 2.904374 -3.595509 0.974101 3.292459 0.000000 0.000000 0.000000 -12.099249 0.382141 0.173263 -3.629814 0.999301 1.136020 0.000000 0.000000 0.000000
-1.822454 60.000000 -6.127072 -3.272165 0.325639 0.318652 -3.272165 0.325639 0.318652 0.035882 0.227810 0.529442 0.068558 0.037875 0.043863 5.000000 0.000000 0.000000 -0.537550 0.025771 2.487549 2.315889 -0.324508 1.094736 -94.078297 12.052572 33.849169 0.000000 0.000000 0.000000 5.761070 -3.362716 -0.667989 6.000954 -0.268871 -0.531742 -92.998234 -10.513858 -25.160418 0.000000 0.000000 0.000000 -1.982081 0.599431 4.159540 -2.878019 0.599404 2.218206 0.000000 0.000000 0.000000 -10.666488 0.379067 0.813663 -2.925873 0.819627 1.013384 0.000000 0.000000 0.000000
-2.693350 60.000000 -5.835325 -3.941090 0.447478 0.512848 -3.941090 0.447478 0.512848 -0.007777 0.272369 0.624280 0.054752 0.064486 0.068744 5.000000 0.000000 0.000000 -1.081044 -0.164042 2.395819 3.732596 -0.455011 1.545849 -81.377183 9.622499 31.642044 0.000000 0.000000 0.000000 5.687795 -3.483041 -1.495454 6.551958 -0.305984 -0.534023 -92.583571 -10.683555 -25.571639 0.000000 0.000000 0.000000 -1.704053 0.574871 4.687799 -2.491661 0.566841 2.066719 0.000000 0.000000 0.000000 -10.260435 0.377469 1.041870 -2.995483 0.871522 1.176520 0.000000 0.000000 0.000000
-3.798798 60.000000 -6.009728 -4.815133 0.649222 0.863515 -4.815133 0.649222 0.863515 -0.302860 0.337885 0.725941 -0.158837 0.142512 0.125199 5.000000 0.000000 0.000000 -2.627009 -0.636445 2.562273 6.962271 -1.013414 3.055374 -45.375081 4.942288 20.877724 0.000000 0.000000 0.000000 6.485791 -4.157904 -2.866611 8.082370 -0.469262 -0.349890 -92.623380 -10.544332 -25.345650 0.000000 0.000000 0.000000 -1.590332 0.557260 4.804070 -2.648652 0.488150 1.887792 0.000000 0.000000 0.000000 -10.451588 0.391724 1.152948 -3.523807 0.997877 1.231617 0.000000 0.000000 0.000000
-5.242286 60.000000 -7.419654 -5.354758 0.822812 1.196194 -5.354758 0.822812 1.196194 -0.661584 0.402451 0.812592 -0.392686 0.263174 0.220710 5.000000 0.000000 0.000000 -5.237606 -1.043272 6.147242 10.670419 -2.323882 5.957138 0.000000 0.000000 0.000000 0.000000 0.000000 0.000000 9.469929 -5.744970 -3.148465 10.370767 -0.715829 -0.095139 -93.249062 -10.322734 -24.778484 0.000000 0.000000 0.000000 -1.310736 0.509710 5.041177 -3.188129 0.366636 1.666480 0.000000 0.000000 0.000000 -10.287192 0.380220 1.062920 -4.393569 1.203404 1.304080 0.000000 0.000000 0.000000
-7.132708 60.000000 -8.927111 -5.127268 0.781927 1.139313 -5.127268 0.781927 1.139313 -0.740673 0.407389 0.810359 -0.493491 0.291980 0.238201 5.000000 0.000000 0.000000 -5.509200 -0.114598 16.069772 14.458912 -3.904265 9.050223 0.000000 0.000000 0.000000 0.000000 0.000000 0.000000 12.153124 -7.115215 -3.188574 10.937382 -0.877354 0.263568 -93.847886 -10.207204 -24.392925 0.000000 0.000000 0.000000 -0.885136 0.462737 5.827059 -3.767899 0.237036 1.442090 0.000000 0.000000 0.000000 -9.516404 0.340748 0.904734 -4.958832 1.390192 1.562095 0.000000 0.000000 0.000000
-9.223938 60.000000 -9.803641 -5.724760 0.714724 0.873326 -5.724760 0.714724 0.873326 -0.715175 0.423717 0.849486 -0.549416 0.376154 0.312847 5.000000 0.000000 0.000000 -1.492384 2.081820 31.560754 17.673927 -5.216361 11.384807 -5.106387 -0.134192 0.633662 0.000000 0.000000 0.000000 11.078493 -6.628597 -3.631539 8.274462 -0.787329 0.603369 -94.613716 -10.077239 -23.932561 0.000000 0.000000 0.000000 -1.203879 0.561068 6.294545 -5.253640 0.073828 1.305944 0.000000 0.000000 0.000000 -9.103633 0.319246 0.781020 -5.816022 1.670939 1.913267 0.000000 0.000000 0.000000
-10.495690 60.000000 -10.236750 -6.433424 0.512312 0.273928 -6.433424 0.512312 0.273928 -0.868111 0.491341 0.969220 -0.654147 0.589464 0.504706 5.000000 0.000000 0.000000 1.680935 3.504780 46.879697 16.901554 -5.726555 12.393156 -22.885241 -0.601406 2.839875 0.000000 0.000000 0.000000 8.887490 -5.569139 -3.907657 6.766781 -0.718840 0.759375 -94.613883 -9.796150 -23.514935 0.000000 0.000000 0.000000 -2.637639 0.931824 6.954019 -4.249084 0.132338 1.268478 0.000000 0.000000 0.000000 -8.923203 0.304425 0.620710 -7.187468 2.119686 2.435858 0.000000 0.000000 0.000000
-10.882674 60.000000 -10.698568 -7.049488 0.326380 -0.263198 -7.049488 0.326380 -0.263198 -1.095355 0.546342 1.046993 -0.828070 0.756132 0.642346 5.000000 0.000000 0.000000 0.527143 4.381733 58.741645 13.211861 -5.265699 11.883799 -37.731383 -0.991550 4.682162 0.000000 0.000000 0.000000 8.325280 -5.390608 -4.563595 7.362798 -0.747792 0.698737 -94.246184 -9.619069 -23.374447 0.000000 0.000000 0.000000 -5.935477 1.712654 6.952590 -1.875244 0.490017 1.721844 0.000000 0.000000 0.000000 -10.508991 0.368658 0.729744 -7.788607 2.389056 2.934213 0.000000 0.000000 0.000000
-10.757514 60.000000 -9.884128 -6.547269 0.185241 -0.524791 -6.547269 0.185241 -0.524791 -1.145695 0.592777 1.134953 -0.929680 0.810918 0.681011 5.000000 0.000000 0.000000 -0.155826 5.053757 66.119911 7.829121 -4.639014 11.111424 0.000000 0.000000 0.000000 0.000000 0.000000 0.000000 8.256324 -5.535414 -5.686929 6.473401 -0.664487 0.659328 -94.288670 -9.574253 -23.295386 0.000000 0.000000 0.000000 -7.064056 2.039421 7.604584 2.772198 0.643403 1.295233 0.000000 0.000000 0.000000 -10.811230 0.404366 1.211117 -5.261662 1.864059 3.198679 0.000000 0.000000 0.000000
